<svg aria-hidden="true" style="position: absolute; width: 0; height: 0; overflow: hidden;" version="1.1" xmlns="http://www.w3.org/2000/svg" xmlns:xlink="http://www.w3.org/1999/xlink">
<defs>
<symbol id="icon-heart" viewBox="0 0 16 16">
<path d="M16 6c0 4.437-8 10-8 10s-8-5.563-8-10c-0.009-0.442 0.037-0.938 0-1.5-0.165-2.479 2.015-4.5 4.5-4.5 1.423 0 2.676 0.97 3.5 2 0.824-1.030 2.077-2 3.5-2 2.485 0 4.665 2.021 4.5 4.5-0.037 0.562 0.009 1.058 0 1.5zM14 4.5c0.124-1.375-1.119-2.5-2.5-2.5-2.591 0-2.5 2-2.5 2 0 0.553-0.447 1-1 1s-1-0.447-1-1c0 0 0.091-2-2.5-2-1.381 0-2.624 1.125-2.5 2.5 0.051 0.564-0.032 1.082 0.014 1.5-0.001 0-0.012 0-0.014 0 0.063-0.015-0.344 2.946 5.988 7.476 0.005-0.003 0.008-0.006 0.012-0.009 0.004 0.003 0.007 0.006 0.012 0.009 6.332-4.529 5.926-7.49 5.988-7.476-0.002 0-0.013 0-0.014 0 0.046-0.418-0.037-0.936 0.014-1.5z"></path>
</symbol>
<symbol id="icon-cheveron-left" viewBox="0 0 20 20">
<path d="M7.050 9.293l-0.707 0.707 5.657 5.657 1.414-1.414-4.242-4.243 4.242-4.243-1.414-1.414z"></path>
</symbol>
<symbol id="icon-cheveron-right" viewBox="0 0 20 20">
<path d="M12.95 10.707l0.707-0.707-5.657-5.657-1.414 1.414 4.242 4.243-4.242 4.243 1.414 1.414 4.95-4.95z"></path>
</symbol>
<symbol id="icon-search" viewBox="0 0 20 20">
<path d="M12.9 14.32c-1.34 1.049-3.050 1.682-4.908 1.682-4.418 0-8-3.582-8-8s3.582-8 8-8c4.418 0 8 3.582 8 8 0 1.858-0.633 3.567-1.695 4.925l0.013-0.018 5.35 5.33-1.42 1.42-5.33-5.34zM8 14c3.314 0 6-2.686 6-6s-2.686-6-6-6v0c-3.314 0-6 2.686-6 6s2.686 6 6 6v0z"></path>
</symbol>
<symbol id="icon-google" viewBox="0 0 20 20">
<path d="M1.989 5.589c0 1.494 0.499 2.572 1.482 3.205 0.806 0.52 1.74 0.598 2.226 0.598 0.118 0 0.213-0.006 0.279-0.010 0 0-0.154 1.004 0.59 1.996h-0.034c-1.289 0-5.493 0.269-5.493 3.727 0 3.516 3.861 3.695 4.636 3.695 0.061 0 0.097-0.002 0.097-0.002 0.008 0 0.063 0.002 0.158 0.002 0.497 0 1.782-0.062 2.975-0.643 1.548-0.75 2.333-2.059 2.333-3.885 0-1.764-1.196-2.814-2.069-3.582-0.533-0.469-0.994-0.873-0.994-1.266 0-0.4 0.337-0.701 0.762-1.082 0.689-0.615 1.339-1.492 1.339-3.15 0-1.457-0.189-2.436-1.354-3.057 0.121-0.062 0.551-0.107 0.763-0.137 0.631-0.086 1.554-0.184 1.554-0.699v-0.099h-4.599c-0.046 0.002-4.651 0.172-4.651 4.389zM9.413 14.602c0.088 1.406-1.115 2.443-2.922 2.574-1.835 0.135-3.345-0.691-3.433-2.096-0.043-0.676 0.254-1.336 0.835-1.863 0.589-0.533 1.398-0.863 2.278-0.928 0.104-0.006 0.207-0.012 0.31-0.012 1.699 0.001 2.849 0.999 2.932 2.325zM8.212 4.626c0.451 1.588-0.23 3.246-1.316 3.553-0.125 0.035-0.253 0.052-0.384 0.052-0.994 0-1.979-1.006-2.345-2.393-0.204-0.776-0.187-1.458 0.047-2.112 0.229-0.645 0.643-1.078 1.163-1.225 0.125-0.035 0.254-0.053 0.385-0.053 1.2 0 1.972 0.498 2.45 2.178zM16 8v-3h-2v3h-3v2h3v3h2v-3h3v-2h-3z"></path>
</symbol>
<symbol id="icon-social-twitter" viewBox="0 0 24 24">
<path d="M18.89 7.012c0.808-0.496 1.343-1.173 1.605-2.034-0.786 0.417-1.569 0.703-2.351 0.861-0.703-0.756-1.593-1.14-2.66-1.14-1.043 0-1.924 0.366-2.643 1.078-0.715 0.717-1.076 1.588-1.076 2.605 0 0.309 0.039 0.585 0.117 0.819-3.076-0.105-5.622-1.381-7.628-3.837-0.34 0.601-0.51 1.213-0.51 1.846 0 1.301 0.549 2.332 1.645 3.089-0.625-0.053-1.176-0.211-1.645-0.47 0 0.929 0.273 1.705 0.82 2.388 0.549 0.676 1.254 1.107 2.115 1.291-0.312 0.080-0.641 0.118-0.979 0.118-0.312 0-0.533-0.026-0.664-0.083 0.23 0.757 0.664 1.371 1.291 1.841 0.625 0.472 1.344 0.721 2.152 0.743-1.332 1.045-2.855 1.562-4.578 1.562-0.422 0-0.721-0.006-0.902-0.038 1.697 1.102 3.586 1.649 5.676 1.649 2.139 0 4.029-0.542 5.674-1.626 1.645-1.078 2.859-2.408 3.639-3.974 0.784-1.564 1.172-3.192 1.172-4.892v-0.468c0.758-0.57 1.371-1.212 1.84-1.921-0.68 0.293-1.383 0.492-2.11 0.593z"></path>
</symbol>
<symbol id="icon-social-facebook" viewBox="0 0 24 24">
<path d="M13 10h3v3h-3v7h-3v-7h-3v-3h3v-1.255c0-1.189 0.374-2.691 1.118-3.512 0.744-0.823 1.673-1.233 2.786-1.233h2.096v3h-2.1c-0.498 0-0.9 0.402-0.9 0.899v2.101z"></path>
</symbol>
</defs>
</svg>
